<?xml version="1.0" encoding="UTF-8"?>
<svg version="1.1" xmlns="http://www.w3.org/2000/svg" width="225" height="225">
<path d="M0 0 C74.25 0 148.5 0 225 0 C225 74.25 225 148.5 225 225 C150.75 225 76.5 225 0 225 C0 150.75 0 76.5 0 0 Z " fill="#0078D7" transform="translate(0,0)"/>
<path d="M0 0 C0.94675598 -0.00974854 1.89351196 -0.01949707 2.86895752 -0.02954102 C42.19965288 -0.3517455 42.19965288 -0.3517455 58.8671875 4.23828125 C59.67285156 4.45742187 60.47851562 4.6765625 61.30859375 4.90234375 C74.10528605 8.4763798 74.10528605 8.4763798 75.8671875 10.23828125 C77.95106059 41.8689489 71.25129152 71.23926717 50.29467773 95.59814453 C41.18548158 105.66546547 25.66583181 119.09369293 11.8671875 121.23828125 C9.22876169 120.22213077 6.86097132 119.16150798 4.3671875 117.86328125 C3.65522217 117.49678467 2.94325684 117.13028809 2.2097168 116.75268555 C-21.54095163 104.1800571 -38.30930354 83.40455678 -46.22558594 57.81176758 C-49.7657111 45.96970699 -51.43889219 34.95473971 -51.2578125 22.55078125 C-51.24878906 21.36033203 -51.23976562 20.16988281 -51.23046875 18.94335938 C-51.20716022 16.04144758 -51.17444373 13.13997808 -51.1328125 10.23828125 C-44.22507444 7.2405836 -37.42280854 5.14424903 -30.0703125 3.55078125 C-29.14154297 3.33873047 -28.21277344 3.12667969 -27.25585938 2.90820312 C-18.15818316 0.88436919 -9.31122385 0.07951623 0 0 Z " fill="#FDFDFE" transform="translate(100.1328125,75.76171875)"/>
<path d="M0 0 C10.3165822 7.45709474 16.99333016 17.79823996 19.25 30.3125 C19.38055262 32.67595256 19.34874003 34.94273917 19.25 37.3125 C17.1660597 37.19806397 15.08283507 37.07054453 13 36.9375 C11.83984375 36.86789063 10.6796875 36.79828125 9.484375 36.7265625 C4.56135282 36.09632053 4.56135282 36.09632053 2.25 34.3125 C1.44921875 31.9921875 1.44921875 31.9921875 0.9375 29.1875 C-0.72628367 22.36240893 -3.89617456 17.74500633 -9.87890625 13.96875 C-16.13719783 10.74163832 -21.70407301 9.42678319 -28.75 10.3125 C-36.93140193 13.16180327 -42.72526063 17.72072196 -46.90234375 25.3984375 C-48.32695971 28.61531224 -49.02630215 31.8749352 -49.75 35.3125 C-55.13027025 36.50338986 -60.20291384 37.6044519 -65.75 37.3125 C-65.19844493 23.05480147 -60.76937995 12.83638644 -50.4375 3.0625 C-46.1909126 -0.57743205 -42.00114461 -2.83300655 -36.75 -4.6875 C-35.14125 -5.30625 -35.14125 -5.30625 -33.5 -5.9375 C-21.47437741 -8.34262452 -10.45075695 -6.4243523 0 0 Z " fill="#F9FBFD" transform="translate(135.75,34.6875)"/>
<path d="M0 0 C4.84115976 2.33092877 7.70301121 5.14098526 10 10 C10.78549682 15.37824864 10.6984307 19.6031386 8.25 24.5 C6.2795863 26.68934855 4.47128449 28.41131711 2 30 C2.51949219 30.268125 3.03898437 30.53625 3.57421875 30.8125 C9.33507246 34.04965255 12.19988776 36.96225799 15 43 C15 46.3 15 49.6 15 53 C1.47 53 -12.06 53 -26 53 C-26 45.67054468 -25.20383127 41.84505306 -21 36 C-18.18233138 33.62053068 -15.24662331 31.74002034 -12 30 C-12.48210937 29.61328125 -12.96421875 29.2265625 -13.4609375 28.828125 C-14.09257813 28.30734375 -14.72421875 27.7865625 -15.375 27.25 C-16.00148438 26.73953125 -16.62796875 26.2290625 -17.2734375 25.703125 C-20.32390719 22.6940644 -20.95550532 20.4523626 -21.375 16.1875 C-21.2434583 11.47830711 -19.72079847 8.82382487 -17 5 C-11.45280523 -0.0188905 -7.35728001 -0.80364136 0 0 Z " fill="#0579D7" transform="translate(118,97)"/>
<path d="M0 0 C0.33 0 0.66 0 1 0 C1 3.63 1 7.26 1 11 C-2.96 11 -6.92 11 -11 11 C-9.68 10.34 -8.36 9.68 -7 9 C-3.20263227 6.378008 -1.35677252 4.44034642 0 0 Z " fill="#F1F6FC" transform="translate(224,214)"/>
<path d="M0 0 C0.66 1.32 1.32 2.64 2 4 C4.50036367 7.41716368 6.54561887 9.40921415 10 12 C6.7 12 3.4 12 0 12 C0 8.04 0 4.08 0 0 Z " fill="#F2F7FC" transform="translate(0,213)"/>
<path d="M0 0 C3.3 0 6.6 0 10 0 C8.8553125 0.86625 8.8553125 0.86625 7.6875 1.75 C3.94558663 4.88276468 2.18666637 7.62666727 0 12 C0 8.04 0 4.08 0 0 Z " fill="#F2F7FC" transform="translate(0,0)"/>
<path d="M0 0 C3.63 0 7.26 0 11 0 C11 3.3 11 6.6 11 10 C10.4225 9.236875 9.845 8.47375 9.25 7.6875 C6.47684414 4.37511939 3.57295742 2.38197161 0 0 Z " fill="#F6F9FD" transform="translate(214,0)"/>
<path d="M0 0 C0 3 0 3 -2.5 5.6875 C-3.325 6.450625 -4.15 7.21375 -5 8 C-5.66 7.67 -6.32 7.34 -7 7 C-4.78071806 4.09197539 -3.07030857 2.04687238 0 0 Z " fill="#177DD8" transform="translate(102,129)"/>
</svg>
